<?xml version="1.0" standalone="no"?>
<!DOCTYPE svg PUBLIC "-//W3C//DTD SVG 20010904//EN"
 "http://www.w3.org/TR/2001/REC-SVG-20010904/DTD/svg10.dtd">
<svg version="1.0" xmlns="http://www.w3.org/2000/svg"
 width="3840.000000pt" height="2160.000000pt" viewBox="0 0 3840.000000 2160.000000"
 preserveAspectRatio="xMidYMid meet">

<g transform="translate(0.000000,2160.000000) scale(0.100000,-0.100000)"
fill="#000000" stroke="none">
<path d="M20840 16195 c0 -4 9 -15 20 -25 19 -17 18 -18 -52 -22 -40 -3 -82
-10 -93 -16 -37 -21 -294 -50 -370 -43 -67 7 -407 1 -945 -18 -208 -7 -267
-12 -321 -29 -140 -42 -231 -96 -222 -131 8 -31 27 -32 104 -6 92 32 107 31
115 0 3 -14 13 -25 21 -25 14 0 14 -3 0 -23 -8 -13 -18 -46 -20 -73 -3 -27
-11 -71 -17 -99 -12 -55 -8 -114 20 -273 11 -57 17 -109 14 -116 -3 -7 -17
-13 -32 -12 -26 1 -29 8 -107 241 -44 132 -83 245 -88 252 -4 7 -17 9 -35 4
-26 -7 -27 -11 -33 -82 -5 -69 -30 -151 -52 -174 -6 -6 -6 9 -2 43 4 28 5 52
2 52 -10 0 -67 -159 -71 -196 -2 -21 -34 -124 -71 -229 -73 -205 -118 -352
-142 -455 -12 -53 -12 -78 -3 -140 25 -157 135 -373 174 -341 7 6 16 8 19 4
14 -13 6 10 -37 115 -69 169 -73 232 -7 111 31 -56 54 -79 67 -66 3 3 -4 48
-17 99 -20 79 -23 119 -23 263 -1 167 0 173 37 305 51 182 55 190 82 190 20 0
23 -7 34 -83 18 -133 58 -223 166 -377 100 -142 274 -319 283 -290 2 5 10 10
17 10 24 0 24 28 -2 51 -61 57 -223 308 -223 345 0 15 2 16 9 5 7 -11 10 -11
12 3 4 16 5 16 22 -1 10 -10 42 -52 72 -93 86 -118 169 -196 250 -235 70 -34
84 -38 119 -36 18 1 17 4 -9 31 -38 40 -20 39 89 -5 101 -41 121 -43 137 -13
10 19 7 25 -28 54 -39 33 -243 293 -317 406 -34 51 -56 115 -35 102 5 -3 12 2
15 10 4 11 25 -9 74 -67 134 -163 290 -269 517 -352 87 -32 180 -69 206 -82
39 -20 50 -21 61 -11 23 24 0 53 -83 106 -58 37 -79 56 -75 67 3 8 10 12 15 9
5 -3 6 2 2 12 -5 13 -2 15 18 9 40 -13 142 -66 178 -93 71 -53 86 -133 101
-572 16 -481 52 -626 220 -905 105 -176 139 -225 153 -222 13 2 37 23 37 32 0
3 -24 61 -54 128 -86 197 -111 286 -140 509 -14 108 -11 180 8 150 4 -6 13 -9
21 -6 10 4 19 -13 34 -64 32 -107 81 -193 201 -357 171 -232 223 -355 255
-598 26 -204 18 -279 -50 -482 -24 -71 -43 -130 -42 -131 1 -1 12 -5 24 -8 31
-10 48 13 120 156 75 150 90 194 110 323 15 99 14 164 -3 435 l-6 95 43 49
c49 56 159 165 301 301 174 166 308 376 357 555 37 138 43 222 39 536 -4 275
-6 304 -25 359 -12 33 -18 63 -14 67 4 4 58 3 121 -3 311 -28 456 -93 642
-287 110 -114 189 -234 288 -434 87 -176 115 -265 132 -422 20 -187 -19 -426
-116 -702 -44 -125 -200 -468 -384 -844 -204 -418 -229 -491 -239 -690 -8
-182 28 -308 125 -435 37 -49 64 -63 90 -46 11 6 5 25 -26 88 -65 129 -75 182
-69 368 6 179 16 227 75 349 50 104 188 340 312 531 140 217 170 275 200 389
26 95 29 101 51 98 13 -2 26 -6 28 -8 7 -7 -29 -342 -45 -423 -9 -41 -35 -142
-59 -225 -65 -227 -69 -254 -69 -436 0 -249 47 -466 131 -609 75 -127 238
-276 408 -374 161 -94 282 -127 458 -127 131 -1 175 -11 267 -64 166 -96 316
-129 585 -130 185 -1 216 4 323 46 42 16 52 25 52 44 0 12 -5 26 -10 29 -6 3
-47 -1 -93 -11 -138 -28 -337 -5 -500 58 -178 68 -337 215 -504 466 -120 179
-211 357 -196 381 19 30 41 16 98 -64 31 -44 78 -102 103 -129 68 -70 232
-190 315 -230 134 -65 337 -110 633 -141 324 -33 338 -36 392 -60 66 -30 156
-115 220 -208 102 -148 137 -247 130 -366 -6 -93 -32 -150 -112 -239 -46 -51
-55 -67 -45 -78 24 -29 52 -14 139 74 57 57 96 107 116 147 27 56 29 68 29
180 0 139 -17 201 -93 348 -59 114 -134 196 -228 251 -41 24 -71 46 -68 49 3
3 7 13 8 24 2 12 11 17 27 16 13 0 79 -6 145 -11 139 -12 335 -1 429 23 80 21
114 35 285 116 80 37 174 76 210 85 92 25 223 22 338 -5 51 -13 95 -21 98 -18
3 2 7 14 9 26 3 19 -5 26 -51 47 -79 35 -189 65 -264 73 -60 5 -65 8 -68 31
-2 21 6 30 55 56 53 27 61 37 96 105 20 41 42 98 47 128 22 117 6 300 -34 395
-12 29 -18 33 -40 29 -14 -3 -26 -7 -26 -9 0 -2 7 -48 16 -102 28 -170 3 -267
-96 -376 -71 -77 -198 -139 -336 -165 -116 -22 -300 -32 -395 -21 -192 22
-492 104 -647 177 -98 46 -284 172 -409 277 -124 105 -464 458 -405 422 7 -4
15 -1 18 8 3 9 10 16 15 16 5 0 47 -25 92 -57 166 -114 378 -198 602 -239 153
-28 448 -26 570 4 153 38 352 151 515 292 50 44 51 45 34 66 l-18 21 -123 -82
c-176 -119 -296 -161 -528 -185 -198 -21 -315 -16 -445 18 -145 37 -281 88
-437 162 -99 47 -123 63 -123 79 0 30 22 27 159 -19 221 -73 366 -86 582 -49
290 49 381 97 829 439 144 110 160 115 400 115 220 0 305 -14 409 -66 70 -35
101 -69 143 -154 28 -57 33 -61 59 -57 36 5 37 19 9 126 -26 102 -62 167 -126
225 -106 97 -270 158 -489 182 -63 7 -115 17 -115 22 0 18 -122 -4 -217 -39
-53 -19 -97 -34 -98 -34 -1 0 -5 11 -8 26 -4 22 4 30 55 66 134 90 177 159
185 292 6 92 -9 167 -57 292 -39 102 -51 120 -76 109 -10 -4 -22 -8 -25 -7 -3
0 5 -49 18 -111 46 -217 21 -320 -107 -440 -131 -124 -249 -189 -450 -250
-279 -84 -467 -98 -750 -56 -186 28 -438 123 -577 217 -91 62 -162 147 -225
270 -77 148 -101 222 -144 434 -44 222 -86 351 -169 523 -98 204 -205 355
-364 516 -148 148 -224 205 -341 254 -265 111 -832 178 -1036 122 -83 -23
-171 -76 -225 -134 -27 -30 -49 -59 -49 -64 0 -24 -28 -4 -47 34 -23 47 -252
347 -317 415 -113 119 -350 273 -491 318 -78 25 -245 45 -245 29z m-104 -1321
c-3 -9 -2 -12 5 -9 5 4 16 2 23 -5 8 -6 24 -13 36 -15 12 -2 37 -13 54 -23 18
-11 63 -29 99 -41 37 -13 80 -34 96 -47 67 -56 93 -198 84 -457 l-6 -157 26 0
c23 0 28 7 42 53 36 120 65 296 65 395 0 77 3 102 15 112 23 19 314 14 382 -7
69 -21 125 -70 154 -135 22 -48 24 -67 24 -198 0 -211 -26 -270 -202 -447 -92
-93 -149 -130 -217 -137 -66 -8 -118 -35 -134 -69 -7 -15 -18 -87 -24 -159 -5
-72 -14 -141 -18 -152 -8 -18 -9 -19 -9 -3 -1 10 -5 16 -10 13 -14 -9 -28 15
-46 84 -10 36 -50 133 -90 215 -144 298 -242 590 -295 875 -24 134 -34 168
-66 233 -21 43 -22 50 -9 63 8 9 15 20 15 25 0 5 3 9 6 9 3 0 3 -7 0 -16z
m2618 -2678 c3 -11 7 -73 10 -136 5 -122 29 -236 87 -415 62 -197 161 -371
258 -457 65 -57 180 -122 251 -142 62 -17 86 -41 70 -67 -7 -10 -28 -13 -84
-12 -213 6 -437 121 -562 287 -114 149 -159 298 -151 491 4 98 47 422 61 460
2 6 15 11 30 11 19 2 27 -4 30 -20z"/>
<path d="M21520 14564 c-14 -7 -38 -13 -54 -14 -47 0 -92 -56 -105 -133 -15
-87 -14 -92 14 -107 21 -11 29 -11 51 0 54 29 91 -39 59 -110 -10 -22 -24 -45
-30 -50 -19 -16 -47 -1 -42 21 3 11 2 21 -2 24 -5 2 -29 -48 -56 -112 -29 -73
-43 -119 -36 -121 6 -2 11 -10 11 -18 0 -22 45 0 108 55 32 27 67 52 80 56 69
21 123 106 130 205 l4 66 34 -1 c19 -1 34 3 34 9 0 6 4 5 9 -3 15 -24 23 41
11 95 -13 59 -52 112 -94 129 -51 20 -100 24 -126 9z"/>
<path d="M19020 16091 c-40 -13 -120 -52 -127 -63 -3 -6 -2 -9 3 -7 5 3 34 16
64 30 30 14 66 30 80 37 29 12 17 14 -20 3z"/>
<path d="M18423 14770 c0 -47 2 -66 4 -42 2 23 2 61 0 85 -2 23 -4 4 -4 -43z"/>
<path d="M20437 12901 c2 -9 -2 -11 -13 -7 -10 4 -36 -5 -63 -22 -25 -16 -80
-47 -121 -68 -41 -22 -77 -41 -80 -44 -3 -3 -34 -20 -70 -37 -36 -18 -59 -33
-52 -33 7 0 11 -4 8 -9 -4 -5 0 -12 6 -15 7 -3 3 -3 -9 0 -13 3 -23 1 -23 -5
0 -6 5 -11 11 -11 8 0 8 -5 -1 -15 -10 -13 -9 -15 9 -15 11 0 21 -4 21 -10 0
-5 -4 -10 -10 -10 -5 0 -10 -7 -10 -15 0 -9 -9 -15 -25 -15 -30 0 -33 -15 -6
-30 14 -7 21 -6 24 3 4 9 6 9 6 0 1 -7 6 -13 12 -13 5 0 8 4 5 8 -3 5 18 5 47
1 54 -9 55 -9 128 61 8 8 42 35 75 59 32 23 75 64 94 90 19 25 41 52 47 59 16
16 28 61 19 69 -3 3 -1 12 6 20 6 7 8 16 4 20 -3 3 -6 1 -6 -5 0 -13 -26 -16
-33 -4 -2 4 -2 1 0 -7z"/>
<path d="M17998 10181 c-2 -3 -16 -14 -33 -23 -62 -34 -100 -159 -135 -448
-27 -217 -53 -365 -95 -530 -19 -74 -57 -247 -85 -384 -28 -137 -71 -323 -96
-414 -63 -234 -92 -426 -68 -460 7 -11 11 -22 8 -24 -2 -3 7 -13 20 -22 24
-15 31 -14 143 18 65 19 174 60 243 91 69 31 186 81 260 110 179 70 269 113
266 128 -7 41 -20 58 -46 63 -29 6 -40 26 -40 72 0 13 -18 77 -40 142 -85 247
-115 526 -107 975 5 307 12 357 62 505 15 46 22 78 16 87 -6 11 -10 12 -15 4
-12 -19 -26 -12 -26 14 0 28 -22 42 -120 73 -84 26 -108 31 -112 23z"/>
<path d="M19688 9921 c-33 -12 -131 -207 -152 -303 -29 -130 -30 -123 16 -126
22 -1 54 4 70 13 17 8 43 15 57 15 38 0 236 -60 396 -120 77 -28 151 -56 165
-60 83 -27 205 -60 239 -66 36 -6 41 -4 54 23 10 19 12 34 6 45 -6 11 -6 19 1
23 5 3 10 14 10 24 0 9 13 38 30 64 l29 47 -27 6 c-285 66 -409 108 -608 206
-61 30 -125 60 -142 66 -18 6 -32 18 -32 27 0 9 -4 14 -8 11 -10 -6 -43 30
-35 37 7 8 -24 64 -39 69 -7 3 -21 2 -30 -1z"/>
<path d="M19481 9426 c-19 -23 -61 -158 -68 -218 -9 -84 19 -138 71 -138 9 0
104 -38 213 -85 213 -90 320 -125 466 -151 177 -31 242 5 276 150 9 39 9 52
-1 62 -18 17 -146 56 -341 104 -89 22 -236 64 -326 93 -149 47 -165 55 -175
80 -6 15 -14 27 -18 27 -4 0 -8 6 -8 13 0 11 -64 77 -75 77 -1 0 -8 -6 -14
-14z"/>
<path d="M22180 8690 c-29 -4 -36 -10 -38 -32 -4 -29 -51 -58 -96 -58 -14 0
-26 -4 -26 -9 0 -5 -71 -11 -157 -13 -133 -3 -165 -8 -205 -25 -45 -20 -47
-23 -57 -80 -6 -32 -21 -75 -32 -97 -12 -22 -17 -42 -12 -47 5 -5 51 -1 109
10 56 11 148 25 205 31 57 6 139 16 182 21 71 9 81 9 99 -8 23 -21 58 -85 58
-107 0 -23 -51 -78 -67 -72 -8 3 -11 1 -8 -4 3 -6 -2 -10 -12 -10 -93 -1 -388
-22 -436 -30 -190 -33 -231 -81 -262 -300 -8 -63 -22 -155 -30 -205 -8 -49
-26 -161 -40 -249 -30 -183 -51 -250 -102 -324 -57 -83 -117 -120 -255 -157
-39 -11 -46 -11 -41 1 3 8 1 14 -5 14 -5 0 -12 9 -15 21 -4 14 6 36 30 67 20
26 43 63 51 82 22 53 44 192 32 204 -5 5 -10 6 -10 2 0 -5 -7 -2 -16 5 -13 11
-17 11 -25 -3 -35 -63 -163 -207 -224 -253 -16 -13 -66 -42 -110 -66 l-79 -43
-181 2 c-326 3 -507 13 -501 28 3 7 1 16 -5 19 -5 4 -7 11 -4 16 4 5 0 12 -8
14 -9 4 1 20 35 55 26 27 48 54 48 60 0 11 270 285 483 489 103 99 107 104 87
118 -18 13 -24 12 -53 -8 -32 -23 -143 -115 -162 -135 -5 -5 -48 -44 -95 -85
-47 -40 -96 -84 -110 -97 -47 -44 -287 -221 -381 -281 -149 -96 -241 -151
-250 -151 -5 0 -9 -5 -9 -10 0 -20 -56 -32 -220 -46 -91 -8 -205 -21 -253 -29
-55 -8 -97 -10 -110 -5 -12 5 -16 9 -9 9 8 1 10 6 5 14 -20 33 -16 41 52 92
22 16 69 57 105 90 134 124 187 167 273 226 84 58 87 62 72 79 -15 17 -15 19
2 29 26 15 17 14 -65 -9 -144 -40 -327 -151 -520 -314 -151 -128 -188 -166
-172 -176 25 -15 -33 -39 -125 -51 -49 -6 -99 -15 -110 -19 -11 -4 -33 -13
-49 -19 -26 -11 -32 -9 -56 14 -40 38 -54 95 -52 210 l2 100 -107 -2 c-209 -5
-515 -24 -538 -35 -18 -8 -28 -7 -46 6 -31 21 -66 20 -73 -1 -8 -28 -26 -231
-26 -300 l0 -63 -30 0 c-30 0 -110 43 -110 59 0 13 -58 11 -68 -2 -13 -15 -46
-160 -72 -312 -25 -140 -44 -186 -83 -199 -25 -9 -151 2 -467 41 -30 4 -81 6
-113 4 -47 -3 -61 0 -72 15 -12 17 -11 22 9 44 13 14 58 71 100 127 96 127
195 220 280 262 54 26 66 37 66 56 0 13 -4 26 -9 29 -7 5 -80 -4 -147 -19 -17
-4 -21 0 -20 16 1 22 56 59 87 59 21 0 32 25 16 38 -16 12 -82 24 -127 23 -61
-2 -127 61 -177 166 -50 108 -41 299 21 423 27 54 31 68 20 78 -7 6 -20 12
-29 12 -26 0 -92 -68 -113 -118 -53 -122 -56 -363 -7 -465 9 -18 41 -58 71
-91 54 -57 55 -58 35 -72 -17 -12 -29 -13 -62 -4 -33 9 -44 9 -50 -2 -4 -7 -5
-16 0 -21 11 -11 -324 -346 -399 -398 -36 -25 -101 -65 -145 -89 -44 -24 -112
-65 -150 -91 -39 -26 -84 -53 -100 -60 -45 -17 -322 -24 -341 -8 -9 7 -51 13
-107 14 -53 1 -114 9 -144 19 -63 20 -130 69 -157 115 -18 31 -18 35 -3 61 10
15 16 39 15 53 -3 29 -6 30 -258 47 -80 5 -192 16 -250 24 -58 9 -213 25 -345
36 -132 11 -334 35 -450 51 -207 30 -385 41 -437 27 -21 -6 -28 -16 -33 -47
-9 -57 7 -79 88 -116 82 -38 348 -120 517 -160 138 -32 573 -153 685 -191 121
-40 212 -89 236 -127 26 -42 21 -121 -17 -232 -18 -56 -27 -103 -28 -155 -1
-69 3 -83 42 -167 62 -133 82 -210 89 -343 7 -145 -7 -216 -83 -422 -52 -140
-76 -214 -194 -598 -53 -172 -236 -703 -261 -755 -11 -23 -31 -53 -44 -65 -23
-22 -23 -24 -9 -53 15 -29 17 -29 72 -23 32 4 66 8 77 11 11 2 23 4 27 4 17 2
71 57 93 96 14 23 45 96 69 161 24 66 84 209 134 319 128 283 284 655 317 755
15 47 57 156 92 244 35 87 91 236 124 332 33 95 80 222 105 281 25 59 72 173
104 252 33 78 64 149 71 157 15 18 60 18 129 -1 30 -8 136 -26 235 -40 99 -13
237 -33 305 -44 69 -11 177 -25 240 -31 63 -6 123 -13 133 -16 22 -7 22 -21
-4 -196 -22 -149 -21 -248 2 -303 7 -17 49 -77 94 -135 152 -196 160 -222 152
-490 -3 -102 -15 -261 -26 -355 -26 -216 -65 -621 -86 -885 -9 -113 -22 -216
-28 -230 -17 -35 -53 -50 -127 -50 -65 0 -66 0 -78 -32 -12 -32 -11 -34 25
-66 55 -49 84 -61 171 -73 164 -24 250 22 291 155 24 79 61 286 96 552 14 104
37 252 50 329 27 154 52 333 91 670 14 121 36 294 50 385 14 91 32 217 40 280
37 302 42 315 112 340 34 12 53 12 114 2 40 -6 143 -16 228 -22 234 -16 285
-37 309 -125 6 -22 16 -146 21 -275 6 -154 17 -278 31 -360 24 -144 22 -201
-15 -416 -42 -240 -67 -502 -65 -689 1 -135 6 -150 49 -151 39 -1 153 -47 235
-94 59 -34 80 -37 89 -14 13 34 5 64 -28 99 -34 36 -34 36 -18 65 14 25 22 29
47 25 243 -38 754 -153 884 -200 63 -22 105 -57 129 -108 22 -47 93 -307 142
-522 43 -188 54 -226 137 -475 41 -124 114 -356 163 -516 49 -159 114 -353
145 -430 31 -76 76 -195 100 -264 23 -69 77 -215 118 -325 41 -110 96 -270
122 -355 25 -85 64 -209 85 -275 21 -66 46 -146 55 -177 l16 -58 525 0 524 0
-31 62 c-17 34 -84 148 -149 253 -64 104 -150 246 -190 315 -87 148 -206 328
-380 575 -236 334 -443 670 -755 1230 -98 176 -188 336 -201 356 -62 99 -139
271 -219 487 -46 126 -52 147 -36 138 5 -3 12 1 15 9 5 14 10 13 43 -3 21 -11
75 -29 121 -41 46 -12 129 -38 185 -58 124 -46 897 -430 1172 -584 110 -61
234 -130 275 -153 142 -78 306 -275 495 -591 43 -71 105 -170 138 -220 99
-148 460 -634 533 -719 121 -138 219 -263 294 -374 121 -178 264 -364 317
-414 28 -25 73 -58 100 -71 56 -29 67 -57 21 -57 -15 0 -36 -4 -46 -9 -9 -5
-30 -14 -47 -20 -28 -11 -66 -54 -81 -93 -6 -17 22 -18 506 -18 l513 0 -7 33
c-3 17 -17 55 -31 82 -28 59 -235 334 -415 555 -70 85 -162 202 -205 260 -140
187 -230 294 -330 388 -72 68 -95 95 -87 105 6 6 12 17 14 22 1 6 12 9 23 7
11 -1 106 -6 210 -11 216 -10 351 -34 605 -108 85 -25 211 -60 280 -79 312
-87 594 -184 788 -273 71 -32 154 -64 185 -71 32 -6 55 -16 52 -21 -4 -5 -2
-9 3 -9 6 0 8 -8 5 -19 -3 -13 -25 -25 -66 -39 -157 -52 -330 -174 -537 -382
-196 -196 -293 -322 -315 -413 l-7 -27 831 0 831 0 0 28 c-1 50 -34 126 -121
272 -47 80 -104 177 -127 215 -22 39 -71 108 -108 155 -37 47 -73 99 -80 117
-24 57 -18 115 22 190 78 145 50 188 -243 376 -240 154 -286 197 -485 452 -69
88 -167 205 -219 260 -52 55 -153 165 -226 245 -196 217 -420 428 -713 672
-63 53 -173 146 -245 208 -170 147 -333 277 -475 380 -259 186 -294 226 -360
405 -84 226 -265 664 -335 810 -70 146 -211 354 -330 490 -119 136 -170 203
-320 425 -301 445 -370 539 -486 666 -120 133 -142 191 -99 261 24 40 77 68
171 89 201 44 429 118 579 187 41 18 121 53 177 77 133 55 187 91 221 148 23
41 27 60 30 150 3 56 -1 183 -7 280 -16 250 -6 281 113 342 120 62 138 103
116 260 -7 52 -14 156 -15 230 -2 106 -7 151 -24 209 -28 96 -29 97 -71 91z"/>
<path d="M18431 1724 c-30 -104 -43 -283 -52 -704 -8 -409 0 -903 17 -987 l7
-33 113 0 114 0 0 38 c0 20 -9 116 -21 212 -13 117 -23 288 -29 520 -9 341
-15 414 -60 665 -10 61 -22 156 -26 211 -5 86 -9 101 -23 99 -9 -1 -19 2 -23
8 -3 6 -11 -7 -17 -29z"/>
</g>
</svg>
